<svg width="1440" height="327" viewBox="0 0 1440 327" fill="none" xmlns="http://www.w3.org/2000/svg">
<path d="M-3 197.803V6C-1.08134 -1.52705 10 -0.136978 10 7.63076V87.9503C10 91.243 10.9746 94.4619 12.8011 97.2016L25.8788 116.818C36.3837 132.576 51.3786 144.815 68.9208 151.951L160 189L406.728 252.128C412.897 253.706 419.196 254.72 425.548 255.157L525 262L630.832 255.098C636.932 254.7 642.986 253.77 648.925 252.319L783.218 219.501C791.376 217.508 799.745 216.5 808.144 216.5H857L942.994 222.95C952.29 223.647 961.452 225.579 970.238 228.695L1043 254.5L1114.67 278.245C1122.2 280.74 1129.99 282.374 1137.89 283.115L1207.35 289.626C1217.07 290.538 1226.87 290.089 1236.47 288.292L1300.75 276.259C1315.74 273.453 1329.93 267.417 1342.35 258.568L1440 189V326L100.181 302.788C42.9089 301.795 -3 255.084 -3 197.803Z" fill="#050505" stroke="black"/>
</svg>
