<svg width="1238" height="792" viewBox="0 0 1238 792" fill="none" xmlns="http://www.w3.org/2000/svg">
<path d="M165.15 110.095C97.3737 73.6577 0 18.2558 0 0.709482V620.307C0 680.326 39.858 732.768 97.6043 749.128C113.011 753.493 129.074 755.065 145.034 753.77L316.258 739.873C370.495 735.471 425.084 740.5 477.604 754.739L554.333 775.541C642.107 799.337 734.892 797.214 821.485 769.428L934.326 733.22L1141.15 680.013C1193.92 666.44 1232.43 621.14 1237.35 566.881C1241.47 521.391 1221.19 477.121 1184.06 450.529L1145.81 423.142C1123.12 406.892 1097.43 395.307 1070.23 389.055L873.23 343.777C841.927 336.583 811.441 326.205 782.25 312.806L575.314 217.82C537.319 200.38 497.172 188.076 455.93 181.233L300.297 155.409C253.091 147.576 207.297 132.753 165.15 110.095Z" fill="#F87700"/>
</svg>
