<svg width="1440" height="448" viewBox="0 0 1440 448" fill="none" xmlns="http://www.w3.org/2000/svg">
<path d="M-1.5 12.5V446L16.9993 416.738C20.5868 411.063 22.3806 408.225 24.348 405.513C25.6766 403.681 27.064 401.893 28.5081 400.151C30.6466 397.572 32.9493 395.13 37.5547 390.245L37.5552 390.244L37.5556 390.244C52.5511 374.34 60.049 366.387 68.8296 360.234C74.7454 356.088 81.0732 352.564 87.7125 349.717C97.5672 345.492 108.276 343.304 129.692 338.928L129.693 338.928L168.5 331L321.599 311.863C329.57 310.866 333.555 310.368 337.483 309.569C339.413 309.177 341.332 308.73 343.237 308.229C347.114 307.211 350.909 305.897 358.5 303.269L358.501 303.269C367.353 300.205 371.779 298.672 376.04 296.759C378.133 295.819 380.196 294.81 382.223 293.734C386.349 291.546 390.275 288.992 398.128 283.885L398.129 283.885L409.578 276.439C430.196 263.03 440.505 256.325 451.971 252.198C463.437 248.07 475.654 246.666 500.089 243.858L538 239.5L821.174 231.075C830.83 230.788 835.658 230.644 840.446 230.059C845.234 229.474 849.955 228.451 859.397 226.406L877.887 222.4C889.182 219.952 894.83 218.729 900.298 216.897C905.767 215.066 911.013 212.642 921.504 207.795L954.71 192.451C963.848 188.229 968.417 186.118 972.757 183.584C977.097 181.05 981.181 178.108 989.349 172.226L989.349 172.226L1054.45 125.338L1054.46 125.336C1066.74 116.488 1072.89 112.064 1079.56 108.581C1081.65 107.491 1083.77 106.471 1085.93 105.524C1092.82 102.498 1100.12 100.474 1114.71 96.4271C1130.67 92.0013 1138.64 89.7884 1146.81 88.8508C1149.37 88.5573 1151.94 88.358 1154.51 88.2531C1162.72 87.9179 1170.95 88.8721 1187.39 90.7805L1213.42 93.8005C1220.99 94.6787 1224.78 95.1178 1228.55 95.2823C1236.77 95.6399 1244.99 95.0323 1253.06 93.4721C1256.77 92.7543 1260.45 91.7638 1267.81 89.7827C1271.16 88.8789 1272.84 88.427 1274.5 87.9207C1278.11 86.8207 1281.65 85.5273 1285.12 84.0461C1286.72 83.3643 1288.29 82.6289 1291.44 81.1582L1436.85 13.2714C1437.93 12.7672 1438.85 11.9709 1439.5 10.9726C1442.28 6.704 1439.19 1.0541 1434.09 1.09459L-1.5 12.5Z" fill="black" stroke="black"/>
</svg>
